<?xml version="1.0" standalone="no"?>
<!DOCTYPE svg PUBLIC "-//W3C//DTD SVG 20010904//EN"
 "http://www.w3.org/TR/2001/REC-SVG-20010904/DTD/svg10.dtd">
<svg version="1.0" xmlns="http://www.w3.org/2000/svg"
 width="3000.000000pt" height="3000.000000pt" viewBox="0 0 3000.000000 3000.000000"
 preserveAspectRatio="xMidYMid meet">
<metadata>
Created by potrace 1.14, written by Peter Selinger 2001-2017
</metadata>
<g transform="translate(0.000000,3000.000000) scale(0.100000,-0.100000)"
fill="#000000" stroke="none">
<path d="M0 15000 l0 -15000 8479 0 c5658 0 8482 3 8486 10 4 7 12 7 25 0 24
-13 3974 -14 3966 -1 -4 5 9 5 32 0 20 -5 54 -9 75 -9 34 0 37 2 37 28 0 16 8
34 20 42 11 8 20 20 20 28 0 19 64 77 106 97 20 9 53 33 73 53 72 70 109 102
119 102 37 0 90 46 242 207 44 46 67 62 111 76 63 19 193 22 324 6 44 -5 148
-14 230 -18 83 -5 170 -14 194 -20 40 -11 48 -10 100 15 64 32 146 42 207 25
23 -6 83 -38 135 -71 101 -65 210 -120 274 -140 22 -7 60 -25 85 -40 25 -15
63 -33 85 -40 48 -16 81 -37 168 -110 82 -69 155 -108 253 -135 23 -6 75 -31
115 -56 l73 -44 2983 -3 2983 -2 0 15000 0 15000 -15000 0 -15000 0 0 -15000z
m16034 9175 c3 -9 0 -15 -9 -15 -8 0 -15 7 -15 15 0 8 4 15 9 15 5 0 11 -7 15
-15z m-904 -54 c0 -12 -20 -25 -27 -18 -7 7 6 27 18 27 5 0 9 -4 9 -9z m-1630
-81 c0 -22 -4 -40 -10 -40 -11 0 -14 63 -3 73 11 12 13 8 13 -33z m527 -42
c-3 -8 -6 -5 -6 6 -1 11 2 17 5 13 3 -3 4 -12 1 -19z m2577 -13 c6 -16 -3 -19
-28 -9 -22 8 -20 24 3 24 10 0 21 -7 25 -15z m-2544 -26 c0 -5 -4 -9 -10 -9
-5 0 -10 7 -10 16 0 8 5 12 10 9 6 -3 10 -10 10 -16z m-514 -36 c-11 -11 -19
6 -11 24 8 17 8 17 12 0 3 -10 2 -21 -1 -24z m534 -60 c0 -51 -11 -52 -15 -1
-3 31 1 48 11 48 2 0 4 -21 4 -47z m2678 17 c31 -19 36 -40 10 -40 -14 0 -58
40 -58 52 0 13 12 10 48 -12z m-2418 -81 c0 -5 -4 -9 -10 -9 -5 0 -10 7 -10
16 0 8 5 12 10 9 6 -3 10 -10 10 -16z m730 -121 c0 -25 -3 -29 -10 -18 -13 20
-13 50 0 50 6 0 10 -15 10 -32z m2054 -3 c3 -9 0 -15 -8 -15 -7 0 -19 7 -26
15 -10 12 -9 15 8 15 11 0 22 -7 26 -15z m-4200 -111 c4 -9 4 -19 2 -22 -10
-9 -36 8 -36 23 0 20 26 19 34 -1z m184 -45 c13 0 11 -3 -5 -11 -13 -6 -23
-16 -23 -22 0 -16 -20 16 -20 33 0 8 6 11 16 7 9 -3 23 -6 32 -7z m73 -35 c11
-14 9 -15 -16 -12 -16 1 -30 9 -33 16 -6 18 33 15 49 -4z m39 -39 c11 -13 10
-14 -4 -9 -9 3 -16 10 -16 15 0 13 6 11 20 -6z m4146 0 c14 -13 13 -15 -5 -15
-12 0 -21 6 -21 15 0 8 3 15 6 15 3 0 12 -7 20 -15z m-2923 -113 c26 -23 46
-24 40 -1 -3 10 -2 19 1 19 13 0 50 -23 75 -46 20 -19 33 -23 57 -18 20 4 43
0 62 -10 44 -23 121 -19 106 5 -3 5 2 9 10 9 8 0 20 -9 26 -20 13 -24 28 -25
51 -4 15 13 24 14 49 6 25 -9 39 -7 77 9 32 14 50 16 57 9 16 -16 36 -12 55
12 l18 21 21 -21 c43 -43 98 -63 153 -56 35 5 53 3 58 -5 4 -6 25 -14 47 -17
21 -3 49 -10 61 -16 12 -6 29 -8 37 -5 8 3 18 2 21 -4 4 -5 24 -9 45 -7 21 1
45 -4 53 -10 32 -27 227 -67 271 -56 15 3 34 -1 49 -11 23 -15 57 -20 172 -28
22 -2 49 -8 60 -14 11 -6 48 -17 83 -24 34 -6 62 -14 62 -18 0 -3 35 -7 77 -9
43 -2 86 -9 98 -14 11 -6 56 -15 100 -19 44 -4 94 -14 110 -22 17 -9 63 -28
103 -43 40 -15 72 -33 72 -41 0 -7 12 -14 28 -14 15 -1 45 -3 67 -4 83 -3 109
-30 90 -92 -5 -17 -3 -23 8 -23 16 0 31 -31 46 -95 5 -22 16 -65 24 -95 8 -30
21 -80 27 -110 16 -71 56 -156 86 -179 13 -11 24 -24 24 -31 0 -7 13 -25 29
-41 27 -25 28 -31 20 -66 -5 -21 -9 -46 -9 -55 0 -22 97 -121 111 -113 5 4 21
-5 34 -19 13 -14 31 -26 40 -26 25 0 17 -28 -15 -58 -28 -25 -30 -30 -21 -61
6 -19 8 -38 5 -43 -4 -5 5 -22 18 -36 13 -15 36 -44 52 -64 15 -21 31 -38 36
-38 5 0 7 23 5 52 -2 28 -2 55 2 60 9 16 35 -31 28 -53 -4 -11 -1 -26 5 -34 9
-11 9 -21 -1 -45 -12 -25 -15 -27 -21 -12 -5 13 -7 10 -7 -11 -1 -16 3 -26 8
-22 13 7 23 -10 42 -73 16 -50 16 -53 -2 -63 -19 -10 -19 -10 0 -35 11 -14 17
-33 14 -44 -6 -21 -4 -22 40 -25 25 -2 27 1 27 32 0 32 1 33 17 18 21 -22 28
-206 8 -245 -14 -28 -10 -50 9 -50 9 0 13 -35 14 -129 1 -72 7 -160 13 -198
13 -84 12 -278 -3 -355 -8 -45 -8 -61 2 -73 9 -11 16 -12 26 -4 9 8 22 6 49
-7 35 -16 37 -16 66 5 16 12 34 19 40 16 5 -4 15 -3 22 2 7 5 31 15 55 23 23
7 42 17 42 22 0 4 6 8 14 8 8 0 21 8 28 19 21 30 74 52 105 45 73 -18 135 -84
173 -184 12 -30 26 -62 30 -71 23 -45 32 -158 31 -386 -1 -257 -5 -287 -61
-513 -17 -68 -69 -247 -92 -315 -24 -72 -58 -260 -67 -370 -4 -58 -14 -95 -33
-135 -39 -78 -112 -166 -166 -201 -41 -26 -55 -29 -126 -29 -68 0 -83 3 -103
22 -25 24 -31 75 -9 84 10 4 13 30 12 108 -1 88 2 107 18 125 18 20 16 51 -4
51 -16 0 -12 66 5 80 9 7 14 18 11 25 -2 6 -1 44 4 83 6 58 12 76 36 99 19 20
28 40 28 64 l1 34 65 5 c64 5 65 6 102 55 21 28 44 68 52 90 8 22 22 60 31 84
19 53 24 233 6 239 -6 2 -11 9 -11 16 0 24 -47 101 -61 101 -8 0 -24 6 -36 13
-16 9 -29 10 -42 3 -14 -8 -22 -7 -31 4 -6 7 -24 17 -40 20 -16 4 -47 24 -69
46 -48 46 -46 49 -55 -102 -5 -75 -3 -103 9 -125 8 -16 15 -36 15 -45 0 -9 9
-51 20 -95 18 -68 19 -87 9 -133 -6 -30 -16 -66 -22 -78 -15 -34 -41 -25 -44
16 -6 74 -28 50 -29 -32 -1 -51 -4 -62 -21 -68 -19 -7 -40 -55 -29 -66 3 -3
-2 -12 -10 -21 -10 -9 -13 -24 -10 -38 4 -16 0 -29 -14 -42 -13 -12 -18 -25
-14 -36 4 -10 2 -21 -4 -25 -8 -5 -7 -15 3 -35 12 -22 12 -32 4 -42 -7 -8 -9
-27 -4 -46 3 -18 6 -44 6 -58 -1 -14 -3 -99 -5 -189 -4 -132 -2 -169 10 -185
19 -27 18 -33 -6 -39 -26 -7 -55 33 -45 63 9 30 -12 55 -33 38 -13 -11 -15
-10 -10 9 7 25 -8 41 -23 26 -6 -6 -3 -24 6 -47 18 -42 14 -66 -10 -66 -11 0
-15 -12 -15 -50 0 -27 -4 -50 -9 -50 -25 0 -41 15 -42 39 -1 37 -11 56 -31 57
-20 2 -24 -26 -8 -56 6 -10 7 -21 2 -24 -12 -7 -39 17 -43 39 -6 30 -22 24
-31 -13 -5 -18 -15 -35 -23 -39 -23 -8 -18 -27 15 -64 16 -19 30 -42 30 -51 0
-20 -15 -24 -25 -8 -12 19 -23 10 -28 -22 -7 -53 14 -82 28 -37 12 36 27 6 19
-36 l-7 -39 -18 23 c-15 18 -27 22 -54 19 -19 -2 -35 0 -35 4 0 4 -4 8 -10 8
-5 0 -10 -9 -10 -19 0 -14 -8 -21 -27 -23 -18 -2 -29 -10 -31 -22 -2 -10 -17
-29 -32 -42 -15 -13 -30 -37 -33 -54 -4 -19 -16 -34 -32 -42 -17 -7 -25 -20
-26 -37 -4 -65 -5 -80 -9 -83 -3 -2 -14 -8 -25 -14 -11 -6 -20 -22 -21 -37 -1
-15 -6 -33 -13 -41 -7 -8 -14 -35 -16 -61 -5 -46 -30 -94 -51 -95 -6 0 -11 6
-11 13 0 7 -3 25 -7 40 -4 16 -2 27 4 27 5 0 10 6 10 14 0 8 10 16 22 18 16 2
22 10 23 31 0 16 -4 36 -11 45 -12 17 -34 9 -34 -14 0 -8 -4 -14 -10 -14 -5 0
-10 -13 -10 -29 0 -16 -7 -37 -16 -45 -10 -11 -15 -35 -15 -79 0 -35 1 -67 2
-73 4 -14 -10 -110 -18 -117 -10 -11 -45 54 -60 113 -8 30 -19 60 -24 66 -5 6
-11 29 -13 50 -2 22 -13 68 -25 103 -11 35 -18 67 -15 72 7 13 44 11 44 -2 0
-5 5 -7 10 -4 6 3 10 18 10 32 0 18 -4 24 -15 19 -16 -6 -45 29 -45 56 0 9
-21 40 -47 68 -42 46 -51 51 -79 47 -24 -4 -37 1 -59 21 -19 17 -30 22 -33 14
-3 -9 -12 -4 -27 13 -36 38 -50 33 -46 -17 4 -38 -24 -27 -83 35 -34 36 -71
67 -82 69 -12 2 -19 12 -19 28 0 21 -5 25 -32 25 -17 0 -35 3 -39 8 -4 4 -14
7 -22 7 -13 0 -13 -2 1 -17 8 -10 19 -31 23 -48 4 -16 15 -42 25 -57 22 -30
24 -44 7 -54 -6 -4 -21 4 -34 21 l-22 28 2 -53 1 -53 -40 -11 c-36 -11 -45
-10 -84 11 -24 13 -50 23 -57 23 -8 0 -14 4 -14 9 0 14 -55 33 -81 26 -13 -3
-46 1 -74 9 -51 16 -165 12 -165 -5 0 -13 -52 -11 -105 3 -37 10 -48 10 -54 0
-6 -10 -18 -10 -56 -2 -43 10 -49 9 -62 -9 -7 -11 -29 -23 -48 -27 -20 -3 -39
-12 -43 -19 -4 -7 -31 -20 -59 -29 -29 -10 -53 -21 -53 -26 0 -4 -14 -10 -31
-14 -25 -5 -39 0 -67 21 -33 25 -39 26 -161 26 -69 -1 -147 3 -173 7 -27 4
-48 4 -48 -1 0 -7 -64 -22 -110 -24 -25 -2 -132 -27 -202 -47 -34 -10 -61 -9
-181 9 -26 3 -52 -1 -77 -12 -22 -10 -49 -15 -63 -11 -20 5 -26 0 -40 -29 -19
-40 -15 -44 55 -52 29 -3 60 -10 69 -14 10 -5 39 -3 70 5 30 8 108 16 174 19
73 3 149 13 195 25 149 41 242 53 346 47 54 -3 108 -5 119 -4 11 1 35 1 53 0
73 -3 282 -1 522 6 251 8 255 8 265 31 17 38 48 24 50 -25 1 -23 30 -52 53
-53 7 0 24 -7 38 -16 20 -14 30 -15 50 -5 14 6 51 11 82 11 49 0 64 -5 106
-35 27 -19 58 -44 68 -55 10 -11 29 -27 42 -35 21 -14 24 -26 31 -113 10 -135
10 -208 1 -272 -13 -95 -13 -180 1 -180 7 0 13 6 13 14 0 13 20 26 41 26 5 0
9 -9 9 -20 0 -11 -4 -20 -10 -20 -17 0 -11 -40 10 -62 21 -23 27 -48 10 -48
-5 0 -30 7 -56 16 l-46 16 -30 -29 c-36 -34 -37 -86 -1 -91 13 -2 28 -17 38
-40 10 -20 20 -40 22 -44 2 -5 -1 -8 -6 -8 -6 0 -11 7 -11 15 0 8 -7 15 -15
15 -8 0 -22 11 -31 25 -9 14 -24 25 -33 25 -9 0 -25 -11 -35 -25 -10 -14 -22
-25 -25 -25 -4 0 -25 16 -46 36 -33 29 -43 34 -57 25 -10 -6 -25 -11 -34 -11
-10 0 0 -12 24 -30 23 -17 42 -35 42 -40 0 -6 7 -10 15 -10 8 0 19 -16 25 -39
6 -22 15 -41 22 -43 8 -3 8 -10 -1 -25 -15 -29 -14 -53 2 -53 22 0 43 -30 71
-101 28 -72 31 -91 16 -119 -12 -22 -3 -50 16 -50 20 0 34 -33 34 -82 0 -51
21 -90 36 -67 4 8 7 40 6 71 -3 47 0 57 11 52 8 -3 28 6 44 20 l30 25 25 -27
c32 -33 42 -107 21 -143 -8 -13 -12 -16 -9 -7 5 18 -14 78 -25 78 -18 0 -39
-35 -39 -64 0 -23 7 -38 21 -48 16 -10 20 -20 15 -36 -13 -39 -25 -26 -50 51
-9 28 -35 19 -53 -18 -19 -40 -46 -43 -51 -7 -2 12 -7 22 -11 22 -11 0 -18
-40 -20 -108 -2 -45 -7 -58 -32 -83 -34 -33 -42 -35 -58 -15 -16 19 -3 96 16
96 9 0 13 11 12 38 -3 73 -5 74 -55 40 -25 -16 -47 -28 -49 -26 -3 2 -6 15 -8
28 -4 27 -27 40 -27 16 0 -9 -7 -16 -15 -16 -10 0 -15 10 -15 31 0 27 3 30 27
27 21 -2 28 2 31 17 2 11 10 35 18 53 8 17 15 53 14 80 -1 26 0 56 2 66 2 15
-5 21 -32 27 -48 10 -55 -1 -31 -48 17 -35 18 -44 8 -75 -7 -20 -18 -42 -24
-49 -6 -8 -14 -29 -18 -46 -7 -33 -25 -46 -25 -18 0 8 -4 15 -10 15 -5 0 -10
7 -10 15 0 8 -9 15 -20 15 -14 0 -20 7 -20 23 0 12 9 40 20 62 11 22 20 48 20
58 0 28 -33 17 -40 -13 -4 -18 -14 -26 -33 -28 -24 -3 -27 0 -27 26 0 19 -8
35 -22 44 -22 14 -22 16 -5 41 9 15 17 43 18 64 0 37 27 123 28 94 2 -35 61
-70 61 -36 0 9 6 22 13 29 19 21 63 -15 71 -59 6 -32 22 -53 31 -43 3 2 7 20
9 40 5 37 -1 47 -61 114 -13 14 -23 32 -23 40 0 21 -40 58 -89 83 l-41 22 -10
-26 c-5 -14 -14 -25 -20 -25 -18 0 -40 27 -40 48 0 37 -36 56 -113 60 l-71 5
27 -34 c15 -19 38 -57 51 -85 13 -28 29 -55 35 -58 6 -4 11 -16 11 -27 0 -22
4 -23 30 -9 13 7 27 6 45 -2 23 -10 26 -16 21 -44 -4 -17 -2 -44 4 -59 11 -30
-10 -89 -36 -99 -8 -3 -14 -19 -14 -36 0 -36 -8 -37 -40 -7 -14 12 -36 22 -50
22 -23 0 -25 5 -33 60 -4 33 -5 69 -2 80 4 11 8 44 11 74 4 52 3 54 -38 92
-24 21 -48 39 -54 39 -25 0 -65 27 -76 52 -14 31 -31 37 -70 27 -15 -4 -30 -3
-33 1 -3 5 -25 18 -48 28 -23 10 -48 26 -56 35 -7 10 -17 17 -22 17 -16 0 -68
64 -74 91 -3 15 -17 37 -31 49 -13 13 -24 35 -24 49 0 14 -4 32 -9 40 -11 17
-41 7 -41 -14 0 -8 -4 -15 -10 -15 -14 0 -13 -102 2 -137 12 -31 11 -73 -3
-87 -5 -6 -9 -20 -9 -33 0 -13 -4 -23 -9 -23 -5 0 -9 13 -9 29 1 17 -6 41 -14
54 -23 34 -27 150 -7 174 29 33 39 61 39 112 0 56 8 84 22 75 16 -10 58 5 58
21 0 8 4 15 8 15 11 0 37 -29 46 -50 3 -8 4 -5 2 8 -3 16 1 22 15 22 21 0 27
-30 7 -30 -7 -1 -1 -11 13 -23 15 -12 30 -32 33 -43 4 -14 17 -23 37 -26 35
-5 46 6 27 29 -14 18 -16 18 35 -2 16 -7 18 -4 15 16 -2 16 -10 24 -23 24 -14
0 -21 8 -23 28 -2 15 -8 25 -13 22 -5 -4 -9 -1 -9 4 0 21 -44 61 -67 61 -13 0
-32 -9 -44 -21 -18 -18 -24 -19 -44 -9 -18 10 -31 10 -61 0 -46 -15 -93 -50
-93 -69 -1 -19 -40 -51 -63 -51 -13 0 -18 -7 -18 -29 0 -29 14 -41 51 -41 10
0 19 -7 19 -15 0 -16 -43 -38 -73 -37 -9 0 -15 -3 -12 -8 6 -9 -40 -42 -48
-34 -3 3 1 21 9 39 9 23 10 36 3 40 -11 8 -3 59 15 87 9 15 8 21 -4 28 -24 16
-35 12 -53 -20 -15 -24 -19 -59 -22 -177 -2 -80 -1 -152 2 -160 16 -40 73 8
95 78 6 21 22 46 35 55 28 18 32 16 38 -16 3 -13 9 -28 15 -34 16 -16 12 -26
-10 -26 -13 0 -20 -7 -20 -20 0 -11 -4 -20 -10 -20 -13 0 -29 -62 -20 -79 11
-22 -40 -91 -72 -98 -35 -7 -40 -15 -32 -48 8 -32 22 -32 30 -1 4 17 15 26 37
30 18 3 45 13 61 21 40 21 63 11 70 -30 8 -43 25 -54 46 -29 9 10 27 29 41 42
l26 23 43 -25 c29 -17 53 -23 71 -19 21 4 28 1 34 -16 12 -39 26 -11 19 37 -6
40 -5 45 7 36 8 -6 31 -15 53 -18 26 -5 40 -14 43 -27 3 -10 9 -19 14 -19 5 0
9 -8 9 -19 0 -10 7 -24 15 -31 8 -7 15 -20 15 -29 0 -18 -21 -79 -33 -99 -5
-6 -5 -32 -1 -57 7 -53 -7 -79 -39 -69 -12 4 -23 1 -28 -7 -15 -23 -10 -39 11
-39 11 0 20 -6 21 -12 0 -10 2 -10 6 0 8 21 23 13 23 -13 0 -16 -6 -25 -15
-25 -17 0 -20 -23 -5 -50 15 -28 2 -50 -31 -50 -24 0 -29 -5 -35 -35 -3 -20
-4 -53 0 -75 6 -36 4 -39 -16 -37 -13 1 -28 8 -35 16 -10 14 -14 12 -31 -9
-28 -35 -54 -128 -42 -151 6 -10 10 -34 10 -53 0 -20 5 -36 10 -36 17 0 11
-37 -12 -81 -17 -32 -19 -45 -10 -59 9 -14 5 -24 -20 -51 -16 -19 -37 -44 -45
-57 -9 -12 -23 -22 -32 -20 -10 2 -29 -5 -43 -14 -25 -16 -26 -16 -47 12 -28
38 -27 82 3 128 14 20 28 49 31 65 4 15 11 30 16 33 5 3 9 20 9 39 0 19 5 37
10 40 12 7 13 75 2 75 -18 0 -44 -39 -42 -62 4 -36 -11 -89 -24 -85 -6 2 -11
12 -11 23 0 10 -6 23 -13 27 -20 13 -48 -26 -72 -99 -24 -71 -32 -81 -50 -59
-7 8 -19 15 -26 15 -17 0 -17 5 -4 50 6 22 6 38 0 44 -6 6 -10 17 -10 26 0 11
-8 16 -22 16 -15 -1 -27 7 -33 22 -19 42 -73 41 -93 -3 -6 -14 -18 -25 -27
-25 -12 0 -15 16 -15 93 0 81 3 96 20 112 11 10 20 23 20 29 0 6 -4 5 -9 -2
-5 -8 -22 -12 -46 -10 -34 3 -41 -1 -77 -44 -36 -42 -39 -50 -30 -76 5 -16 6
-35 2 -42 -12 -19 -40 -4 -40 20 0 12 -5 18 -10 15 -18 -11 -50 6 -50 26 0 10
-7 19 -15 19 -21 0 -18 40 5 70 19 25 27 60 13 60 -5 0 -14 4 -22 9 -12 8 -9
16 17 46 18 19 32 40 32 45 0 16 -19 21 -39 11 -27 -15 -45 10 -43 59 2 33 -1
40 -17 40 -11 0 -23 -4 -26 -10 -9 -15 -48 -13 -42 3 3 6 16 37 29 67 13 30
26 58 30 61 5 3 2 13 -5 23 -15 21 -11 60 8 76 7 6 11 19 8 29 -4 16 -11 15
-75 -17 -42 -21 -73 -43 -76 -55 -4 -14 -7 -16 -13 -5 -6 10 -11 10 -21 0 -6
-6 -19 -12 -27 -12 -8 0 -25 -12 -37 -27 -14 -17 -26 -24 -37 -20 -26 10 -20
25 13 32 31 7 54 46 83 138 7 20 18 37 24 37 7 0 13 5 13 10 0 13 -37 50 -49
50 -25 0 -79 -44 -105 -84 -33 -53 -82 -71 -111 -42 -9 9 -23 16 -31 16 -8 0
-23 9 -33 19 -15 15 -17 26 -12 52 5 20 13 33 21 31 7 -2 21 5 31 14 25 22 35
11 21 -21 -17 -38 -15 -63 8 -75 16 -8 21 -6 31 11 6 12 8 34 5 50 -3 18 1 40
12 60 13 25 14 32 4 36 -7 3 -25 16 -39 29 -17 16 -32 22 -42 18 -9 -4 -35 -9
-58 -12 -38 -4 -43 -2 -43 17 0 11 11 28 25 37 14 9 24 19 21 21 -2 3 4 25 15
49 l19 45 -26 24 c-26 24 -26 33 -2 68 9 12 10 20 2 25 -15 10 -14 44 3 63 17
20 25 200 10 242 -7 22 -5 38 8 67 17 37 17 40 -1 63 -11 13 -25 22 -33 19
-20 -7 -61 19 -61 40 0 10 4 18 9 18 6 0 13 21 17 47 8 56 -5 70 -64 65 -33
-3 -41 -8 -47 -29 -4 -19 0 -32 15 -48 17 -18 20 -30 15 -54 -4 -17 -10 -31
-15 -31 -4 0 -10 -18 -14 -39 -3 -22 -17 -53 -31 -69 -14 -17 -25 -33 -25 -38
0 -4 -7 -16 -17 -26 -9 -10 -11 -18 -5 -18 16 0 5 -40 -15 -56 -20 -15 -53
-19 -53 -6 0 5 -11 15 -25 22 -14 7 -25 22 -25 32 0 20 -32 38 -37 21 -2 -5
-10 -18 -17 -28 -12 -17 -14 -16 -35 6 -13 13 -36 52 -52 87 -16 34 -34 62
-40 62 -5 0 -19 -21 -29 -46 -22 -49 -40 -53 -51 -11 -5 18 -3 32 7 41 8 8 14
19 14 24 0 6 5 12 11 14 7 2 12 24 13 48 1 42 -1 44 -28 47 -35 3 -55 28 -56
70 0 53 -20 130 -39 152 -17 19 -20 20 -32 5 -7 -9 -13 -42 -13 -76 -1 -58 -2
-60 -34 -73 -30 -13 -33 -13 -38 3 -10 33 -69 142 -76 142 -5 0 -8 14 -8 30 0
37 -23 49 -50 25 -19 -17 -20 -17 -29 8 -6 14 -7 42 -4 61 6 41 -13 51 -23 11
-7 -29 -34 -55 -35 -34 0 8 -4 5 -9 -6 -6 -17 -13 -9 -39 48 -17 38 -31 77
-31 87 0 10 -6 32 -13 49 -13 31 -13 31 -32 11 -10 -11 -21 -20 -24 -20 -9 1
-41 74 -41 93 0 25 -13 21 -35 -13 -11 -16 -28 -30 -37 -30 -23 0 -23 -21 1
-52 13 -16 17 -29 10 -39 -11 -17 -11 -77 1 -104 5 -11 9 -14 9 -7 1 6 5 12
11 12 5 0 14 -6 19 -12 45 -55 61 -77 61 -85 0 -9 -59 -38 -65 -31 -2 2 -5 21
-7 41 -2 30 -5 36 -18 31 -8 -4 -22 -6 -32 -6 -20 1 -30 -35 -22 -76 4 -18 -1
-52 -11 -83 l-18 -52 -18 24 c-11 14 -19 41 -19 66 0 24 -11 67 -25 97 -14 30
-25 68 -25 85 0 46 -9 62 -29 52 -10 -6 -23 -6 -31 -1 -12 8 -11 16 7 53 29
60 16 112 -17 72 -30 -36 -58 2 -34 46 16 29 18 65 3 74 -5 4 -20 4 -33 1 -19
-5 -23 -13 -24 -46 -1 -23 -7 -50 -12 -61 -9 -16 -14 -17 -33 -8 -39 22 -90
30 -227 38 -116 7 -143 12 -194 35 -72 34 -89 50 -158 147 -36 50 -64 104 -82
160 -27 80 -64 171 -108 268 -22 50 -59 170 -94 311 -13 52 -30 109 -38 125
-21 43 -64 238 -76 342 -15 137 -12 296 9 425 37 217 98 345 198 408 41 27 56
30 122 30 67 0 129 -11 210 -36 21 -6 23 -5 15 17 -4 13 -7 110 -6 216 2 121
-1 194 -8 198 -13 8 -13 55 0 55 6 0 10 7 10 15 0 8 -4 15 -10 15 -5 0 -10 19
-10 43 0 23 -7 52 -15 64 -12 17 -13 27 -4 47 9 18 9 33 0 56 -6 18 -8 36 -5
41 9 15 56 10 69 -8 17 -23 37 -7 67 54 12 25 31 49 40 54 10 6 16 14 13 19
-3 5 -20 0 -38 -10 -33 -20 -72 -26 -81 -12 -7 12 21 44 36 40 14 -3 18 2 18
27 0 11 -4 13 -17 6 -10 -5 -26 -12 -36 -15 -9 -3 -21 -14 -25 -25 -6 -17 -9
-18 -26 -6 -28 21 -13 59 39 97 24 18 44 40 45 49 0 17 20 29 47 29 9 0 13 -6
10 -13 -9 -23 7 -35 41 -30 27 5 32 9 32 32 0 15 6 36 14 47 13 17 12 22 -7
42 -16 17 -18 25 -9 34 7 7 12 20 12 30 0 26 26 33 46 14 15 -16 15 -18 -6
-36 -12 -10 -19 -24 -15 -30 4 -7 18 -1 39 17 29 26 31 31 22 61 -8 27 -6 37
11 60 15 21 18 33 11 45 -6 11 -5 17 2 17 5 0 10 10 10 23 0 13 9 33 20 44 14
16 19 32 16 63 -2 27 0 40 8 37 6 -2 11 -16 10 -30 -1 -34 12 -34 42 -2 29 31
38 32 28 3 -11 -35 -13 -68 -4 -68 20 0 40 13 40 26 0 16 21 56 34 66 10 7
-68 20 -99 16 -35 -5 -22 49 23 96 21 23 45 57 52 76 7 19 18 49 25 65 22 50
28 85 16 85 -6 0 -14 -6 -17 -14 -3 -8 -12 -12 -20 -9 -9 3 -14 -2 -14 -15 0
-12 -4 -24 -10 -27 -5 -3 -10 -15 -10 -25 0 -10 -6 -23 -13 -27 -24 -15 -67
-80 -73 -111 -7 -33 -30 -43 -40 -17 -10 24 19 106 44 125 12 10 22 23 22 29
0 6 3 11 8 11 4 0 13 14 20 30 8 17 20 30 28 30 7 0 21 15 29 33 22 46 75 118
107 145 31 26 40 79 13 68 -21 -8 -19 17 6 65 15 31 19 51 14 79 -5 28 -2 46
11 65 17 26 14 43 -5 30 -6 -3 -11 -15 -11 -26 0 -11 -4 -18 -9 -15 -4 3 -16
-1 -26 -8 -17 -12 -55 -11 -55 2 0 10 33 42 44 42 6 0 21 18 33 40 12 22 17
40 12 40 -18 0 -8 30 18 55 15 14 32 25 36 25 5 0 32 15 60 34 51 33 229 106
260 106 9 0 19 5 22 10 4 6 42 28 85 50 42 21 84 46 93 54 28 29 90 66 109 66
11 0 27 7 35 16 12 11 26 14 50 10 18 -3 48 -9 66 -12 38 -7 67 14 67 47 0 15
-5 19 -19 14 -12 -3 -21 0 -25 10 -3 8 -11 15 -19 15 -7 0 -18 5 -24 11 -9 9
-6 17 12 30 29 24 42 24 49 1 7 -22 43 -62 55 -62 5 0 12 10 16 23 6 20 8 19
22 -15 16 -40 45 -54 64 -32 9 11 24 13 54 8 36 -5 46 -2 63 16 20 22 22 22
54 6 18 -9 41 -22 51 -29 21 -14 37 3 37 42 0 19 3 21 14 11 19 -15 168 -15
197 0 11 6 29 8 40 5 15 -5 29 1 50 21 16 15 29 33 29 40 0 7 12 26 26 41 21
23 35 28 77 29 40 1 54 6 69 24 10 12 18 29 18 37 0 18 67 8 93 -15z m-763
-46 c0 -3 -4 -8 -10 -11 -5 -3 -10 -1 -10 4 0 6 5 11 10 11 6 0 10 -2 10 -4z
m-949 -16 c10 0 19 -4 19 -10 0 -12 -67 -13 -74 -1 -8 12 6 22 22 16 7 -3 22
-5 33 -5z m237 -299 c10 -6 7 -12 -12 -25 -14 -9 -26 -23 -26 -31 0 -15 -14
-19 -63 -15 -15 1 -34 -3 -41 -9 -16 -14 -75 2 -106 29 -19 16 -21 22 -10 35
14 17 50 11 63 -11 11 -18 72 -12 128 14 52 24 51 24 67 13z m-294 -127 c20
-8 11 -24 -14 -24 -10 0 -20 -4 -22 -9 -1 -5 -16 -13 -32 -17 -22 -5 -28 -4
-24 7 3 8 14 15 26 17 11 2 26 10 32 18 14 16 13 16 34 8z m5056 -118 c0 -3
-4 -8 -10 -11 -5 -3 -10 -1 -10 4 0 6 5 11 10 11 6 0 10 -2 10 -4z m-82 -169
c4 -29 -12 -37 -22 -11 -10 26 -7 46 7 42 6 -3 13 -17 15 -31z m-73 -36 c3 -5
1 -12 -5 -16 -5 -3 -10 1 -10 9 0 18 6 21 15 7z m-5105 -272 c0 -5 -7 -9 -15
-9 -9 0 -12 6 -9 15 6 15 24 11 24 -6z m-146 -145 c23 -9 20 -18 -16 -53 -38
-38 -46 -38 -54 -6 -5 19 0 30 17 45 27 22 31 23 53 14z m-134 -113 c0 -19
-12 -41 -20 -36 -10 6 -1 45 11 45 5 0 9 -4 9 -9z m-97 -145 c6 -15 -19 -30
-33 -21 -13 8 -1 35 15 35 7 0 15 -6 18 -14z m5491 -22 c11 -29 6 -44 -14 -44
-16 0 -20 7 -20 30 0 32 23 42 34 14z m-5314 -4 c0 -5 -8 -10 -17 -10 -15 0
-16 2 -3 10 19 12 20 12 20 0z m-220 -32 c0 -16 -3 -19 -11 -11 -6 6 -8 16 -5
22 11 17 16 13 16 -11z m5493 -18 c14 -16 14 -20 2 -20 -8 0 -19 9 -25 20 -6
11 -7 20 -3 20 5 0 16 -9 26 -20z m-5413 -178 c0 -4 -7 -18 -16 -30 -9 -13
-14 -28 -11 -35 3 -7 -3 -23 -13 -35 -15 -18 -19 -19 -24 -6 -11 29 -6 46 19
66 14 11 25 26 25 34 0 8 5 14 10 14 6 0 10 -3 10 -8z m-150 -164 c0 -19 -18
-43 -25 -36 -9 9 4 48 16 48 5 0 9 -6 9 -12z m-100 -177 c0 -13 -29 -35 -37
-28 -7 8 15 37 28 37 5 0 9 -4 9 -9z m10 -165 c0 -8 -4 -18 -10 -21 -5 -3 -10
3 -10 14 0 12 5 21 10 21 6 0 10 -6 10 -14z m546 -3202 c-11 -28 -28 -1 -20
32 7 27 8 28 17 7 5 -12 7 -30 3 -39z m4940 -59 c-8 -31 -28 -24 -22 8 3 12 5
26 5 32 1 5 6 4 12 -2 7 -7 9 -23 5 -38z m-4900 -28 c-9 -22 -11 -39 -5 -42 5
-4 9 -15 9 -27 0 -11 14 -37 30 -58 17 -21 30 -49 30 -63 0 -14 4 -28 10 -32
5 -3 9 -25 9 -48 -1 -51 26 -163 49 -197 8 -14 28 -38 43 -54 15 -17 37 -56
49 -88 12 -32 28 -64 36 -71 40 -32 64 -64 88 -113 15 -29 35 -58 45 -63 10
-6 21 -21 25 -33 3 -13 24 -43 46 -68 22 -24 42 -52 45 -61 3 -10 19 -22 35
-27 16 -6 35 -24 44 -39 18 -36 41 -56 68 -60 11 -2 35 -15 54 -29 25 -20 34
-34 34 -56 0 -43 17 -68 45 -68 25 0 65 -31 65 -51 0 -15 52 -69 67 -69 7 0
20 -16 29 -35 13 -28 22 -35 44 -35 21 0 49 -20 116 -85 49 -47 94 -85 100
-85 7 0 19 -12 29 -26 9 -14 32 -32 50 -40 24 -10 39 -26 53 -57 24 -54 61
-92 99 -101 47 -12 72 -33 66 -56 -3 -11 0 -20 6 -20 6 0 11 -13 11 -29 0 -31
12 -45 48 -55 18 -6 22 -3 22 12 0 27 37 18 45 -12 5 -17 20 -54 31 -74 1 -1
15 5 31 14 41 24 63 14 58 -27 -2 -17 -6 -34 -9 -37 -3 -3 -1 -11 5 -19 7 -7
19 -28 29 -45 23 -43 33 -44 68 -7 32 34 52 32 52 -7 0 -21 10 -29 33 -25 4 1
10 -6 13 -14 10 -26 69 -19 88 10 17 26 51 34 58 13 5 -14 -15 -38 -30 -38 -5
0 -17 -9 -26 -19 -16 -17 -16 -23 -4 -48 9 -19 22 -29 41 -31 15 -2 27 -8 27
-13 0 -19 27 -7 84 36 41 31 63 42 70 35 7 -7 5 -19 -7 -38 -10 -15 -21 -35
-24 -44 -3 -10 -12 -18 -20 -18 -25 0 -12 -54 15 -58 12 -2 22 -8 22 -13 0 -6
9 -8 20 -4 13 4 28 -2 45 -19 13 -13 35 -28 47 -31 13 -4 33 -13 45 -21 48
-30 89 -51 114 -57 34 -9 84 -53 84 -75 0 -11 9 -18 27 -20 14 -2 37 -14 51
-27 14 -14 46 -29 75 -36 33 -7 52 -16 52 -25 0 -8 3 -13 8 -13 20 3 32 -2 32
-16 0 -17 30 -34 48 -28 7 3 16 -4 19 -15 5 -20 37 -32 61 -24 7 2 12 16 12
30 0 44 13 55 54 48 38 -7 47 3 21 24 -12 10 -10 15 12 34 47 41 68 133 41
184 -9 17 -9 25 0 34 14 14 16 48 2 48 -5 0 -7 6 -4 14 3 7 13 13 22 12 20 -1
44 42 39 72 -4 23 8 31 17 10 3 -9 11 -5 25 12 12 14 25 30 31 37 5 7 10 16
10 21 0 4 13 21 30 37 34 33 63 110 58 156 -2 26 -9 34 -30 40 -16 4 -28 3
-28 -2 0 -5 -4 -9 -9 -9 -6 0 -6 11 -1 28 17 52 27 186 16 205 -26 41 -46 13
-46 -63 0 -33 -7 -60 -22 -84 -26 -41 -30 -42 -63 -20 -28 18 -32 46 -11 94
12 29 11 42 -11 119 -33 117 -37 141 -24 141 6 0 11 -4 11 -10 0 -5 7 -10 15
-10 9 0 15 -9 15 -22 0 -22 48 -88 63 -88 16 0 5 34 -18 56 -21 20 -25 31 -23
74 3 64 22 84 48 52 28 -34 33 -27 26 31 -14 102 -13 112 11 115 18 3 25 -6
42 -53 12 -31 21 -60 21 -65 0 -15 48 -43 60 -35 5 3 17 19 25 36 17 31 45 38
65 14 7 -8 12 -45 13 -83 0 -68 -10 -101 -69 -217 -14 -26 -14 -30 0 -41 21
-15 20 -33 -4 -59 -25 -27 -40 -100 -19 -93 17 6 58 86 59 116 0 12 5 22 10
22 6 0 10 6 10 14 0 7 7 19 15 26 8 7 15 22 15 34 0 33 15 49 38 42 27 -9 37
-37 17 -48 -8 -5 -15 -22 -15 -37 0 -16 -7 -31 -15 -35 -18 -6 -21 -50 -3 -44
6 2 16 22 22 43 6 21 16 40 22 42 18 6 25 -26 12 -50 -6 -12 -12 -38 -13 -57
-1 -44 -47 -190 -59 -190 -5 0 -17 7 -27 16 -25 23 -51 10 -78 -39 -30 -55
-25 -83 14 -80 16 1 34 -2 40 -7 14 -12 25 -3 25 21 0 10 6 22 14 26 7 4 18
18 24 29 8 15 25 24 59 29 26 4 59 15 73 25 14 10 40 21 58 25 18 4 46 18 61
31 18 15 32 20 36 14 11 -18 44 -10 61 15 12 18 22 23 38 19 16 -4 25 3 40 31
11 19 59 72 108 116 90 84 148 158 148 191 0 11 7 18 20 18 11 0 20 -5 20 -11
0 -8 5 -8 15 1 8 7 15 20 15 29 0 10 11 28 24 40 13 13 34 45 45 72 12 27 25
49 30 49 4 0 13 11 19 25 8 18 19 25 40 25 22 0 36 10 63 47 46 63 47 64 53
95 3 14 18 41 32 58 38 44 50 27 35 -47 -7 -32 -15 -74 -17 -93 -2 -19 -15
-102 -28 -185 -14 -82 -30 -197 -36 -255 -6 -58 -18 -163 -27 -235 -26 -207
-27 -202 54 -366 39 -79 85 -175 103 -214 18 -38 50 -107 72 -152 25 -52 42
-103 45 -138 3 -30 10 -55 14 -55 5 0 9 -11 9 -25 0 -14 4 -25 9 -25 10 0 20
-23 27 -67 2 -16 9 -52 15 -80 6 -29 8 -62 4 -72 -3 -12 0 -23 8 -28 8 -4 17
-21 20 -38 3 -16 9 -43 13 -59 5 -19 2 -31 -7 -37 -12 -7 -11 -13 3 -36 22
-38 24 -251 2 -260 -8 -3 -14 -18 -14 -34 0 -16 -4 -37 -10 -47 -5 -9 -14 -36
-20 -59 -6 -24 -15 -43 -21 -43 -6 0 -10 -18 -8 -42 3 -69 -12 -176 -27 -189
-17 -14 -19 -86 -2 -91 10 -4 10 -10 0 -32 -14 -32 -16 -123 -2 -128 6 -2 3
-21 -6 -48 -13 -36 -13 -49 -3 -70 8 -15 13 -67 14 -136 0 -93 3 -115 18 -132
17 -19 15 -52 -4 -52 -5 0 -9 -12 -9 -26 0 -16 13 -38 36 -60 42 -39 44 -40
44 -17 0 14 2 15 13 4 10 -11 10 -14 0 -18 -17 -6 -16 -43 2 -67 19 -26 19
-56 0 -56 -8 0 -15 -9 -15 -20 0 -12 7 -20 16 -20 19 0 14 -31 -17 -94 -10
-22 -19 -46 -19 -53 0 -7 -5 -13 -11 -13 -8 0 -10 17 -5 56 5 42 3 55 -6 52
-7 -3 -16 -20 -21 -38 -5 -19 -16 -39 -24 -45 -9 -7 -13 -17 -10 -23 4 -5 3
-21 -1 -33 -7 -17 -17 -23 -38 -24 -32 0 -41 -21 -43 -102 -1 -33 -5 -43 -17
-43 -13 0 -15 -7 -10 -31 3 -17 6 -52 6 -76 0 -37 3 -44 18 -41 9 2 25 -5 35
-16 21 -23 22 -36 2 -36 -23 0 -19 -8 25 -49 41 -38 52 -75 28 -99 -9 -9 -9
-12 0 -12 7 0 12 -8 12 -17 1 -17 1 -17 14 0 7 9 18 17 25 17 15 0 15 77 0 82
-17 6 -1 45 20 51 10 2 24 18 32 36 13 30 31 37 62 25 12 -4 13 -12 7 -32 -15
-45 -35 -96 -47 -118 -7 -12 -11 -34 -10 -50 2 -26 -1 -29 -30 -32 -18 -2 -33
-7 -33 -12 0 -5 -8 -16 -17 -26 -16 -15 -15 -18 10 -36 24 -17 27 -26 27 -76
0 -41 6 -64 20 -82 11 -14 20 -29 20 -33 0 -5 7 -15 15 -23 17 -17 21 -74 5
-74 -5 0 -10 8 -10 18 0 24 -33 62 -53 62 -26 0 -77 88 -77 131 0 12 -8 23
-18 25 -17 5 -42 47 -42 71 0 7 -5 13 -11 13 -7 0 -10 -17 -7 -45 2 -31 -1
-45 -9 -45 -7 0 -28 -15 -48 -32 -28 -27 -35 -40 -35 -71 0 -23 4 -36 10 -32
13 8 32 -11 53 -54 21 -41 20 -41 3 -41 -8 0 -17 -11 -20 -24 -3 -13 -15 -26
-25 -29 -17 -4 -19 -11 -14 -41 5 -34 4 -36 -26 -42 -27 -6 -31 -11 -31 -38 0
-18 9 -41 20 -53 19 -21 19 -21 -5 -37 -13 -9 -26 -12 -29 -8 -2 4 -7 49 -11
100 -7 81 -6 92 9 92 9 0 16 5 16 10 0 6 -18 10 -40 10 -38 0 -40 2 -40 30 0
17 -5 30 -11 30 -6 0 -9 -17 -7 -42 3 -39 5 -43 28 -40 24 3 25 1 22 -38 -3
-26 -9 -40 -18 -40 -8 0 -16 -6 -18 -12 -3 -7 -12 -41 -22 -74 l-17 -62 -39 5
c-36 5 -38 4 -38 -21 0 -14 -6 -26 -12 -27 -7 0 -28 -2 -46 -5 -27 -3 -34 0
-42 21 -6 17 -14 23 -25 18 -18 -6 -14 -36 11 -87 16 -32 18 -55 7 -83 -6 -14
-9 -10 -13 17 -6 43 -40 57 -40 16 0 -14 -5 -26 -11 -26 -8 0 -9 -13 -5 -41 4
-22 4 -63 0 -90 -6 -41 -9 -47 -21 -37 -20 16 -45 67 -38 78 3 5 1 11 -5 15
-6 4 -10 -6 -10 -23 0 -27 -31 -72 -50 -72 -5 0 -14 9 -21 21 -13 26 -26 15
-31 -26 -4 -35 -21 -37 -27 -3 -3 18 -7 13 -15 -22 l-12 -45 -42 3 c-23 2 -47
0 -54 -4 -7 -5 -19 -9 -26 -10 -8 -2 -22 -10 -32 -19 -11 -10 -31 -15 -49 -13
-23 2 -38 -5 -63 -29 -29 -29 -50 -37 -110 -42 -4 -1 -19 -12 -33 -25 -15 -14
-32 -23 -38 -20 -15 6 -67 91 -67 109 0 7 -6 26 -14 42 -58 115 -86 181 -86
197 0 21 -60 178 -71 186 -4 3 -22 39 -40 80 -56 129 -90 205 -97 216 -68 108
-194 279 -226 308 -64 56 -459 443 -655 641 -260 263 -311 317 -517 550 -137
155 -345 365 -439 443 -88 72 -135 118 -135 132 0 5 -10 10 -22 12 -12 2 -23
8 -25 15 -3 7 3 9 16 6 12 -3 21 -1 21 6 0 7 11 24 25 39 14 15 25 36 25 47 0
11 -11 51 -25 89 -14 38 -25 80 -25 93 0 13 -7 26 -15 29 -8 4 -15 14 -15 24
0 10 -6 20 -14 23 -7 3 -16 18 -19 34 -6 33 -65 134 -102 175 -14 15 -25 35
-25 44 0 9 -9 27 -20 41 -11 14 -20 32 -20 39 0 8 -9 14 -20 14 -17 0 -20 6
-18 35 2 27 -3 39 -20 51 -12 8 -22 24 -22 34 0 10 -4 22 -10 25 -5 3 -10 1
-10 -4 0 -6 -4 -11 -10 -11 -5 0 -10 11 -10 24 0 13 -9 35 -20 48 -30 33 -110
160 -110 173 0 7 -11 22 -25 35 -14 13 -25 32 -25 41 0 10 -8 26 -19 36 -10
10 -32 47 -50 83 -45 93 -71 139 -112 195 -20 28 -42 66 -49 85 -7 19 -19 42
-27 51 -7 8 -13 19 -13 23 0 5 -6 22 -14 39 -7 18 -22 52 -32 77 -10 25 -21
47 -24 50 -11 9 -60 102 -60 114 0 6 -14 38 -30 70 -17 32 -30 65 -30 72 0 7
-6 28 -14 46 -8 18 -21 49 -30 70 -9 20 -16 43 -16 51 0 9 -4 18 -9 21 -5 3
-11 23 -14 43 -8 57 -30 147 -38 153 -3 3 -14 39 -23 80 -9 41 -21 93 -26 115
-8 34 -17 106 -34 260 -2 17 3 98 11 180 7 83 18 233 23 335 5 102 14 241 19
309 8 110 7 133 -11 205 -11 45 -22 88 -25 96 -11 28 -13 45 -18 128 -5 73 -3
84 15 99 11 10 20 24 20 32 0 11 3 12 11 4 7 -7 6 -21 -5 -46z m4735 -50 c-8
-8 -15 -7 -29 7 -16 16 -16 18 1 30 9 7 17 19 18 27 1 8 6 -1 12 -19 7 -24 7
-36 -2 -45z m-4286 -41 c8 3 21 -5 30 -20 10 -14 24 -26 32 -26 7 0 22 -20 33
-45 16 -37 17 -50 8 -70 -8 -17 -17 -24 -28 -20 -13 4 -19 -6 -30 -51 -12 -49
-12 -60 1 -83 14 -25 11 -82 -5 -99 -11 -11 -41 14 -44 37 -2 12 -10 25 -18
28 -8 3 -14 16 -14 29 0 30 -16 31 -31 3 -9 -17 -13 -19 -20 -8 -14 23 -10 39
10 39 29 0 35 18 15 41 -15 17 -16 26 -8 58 6 21 7 46 3 57 -4 10 -5 38 -2 62
4 31 2 42 -8 42 -9 1 -6 8 9 19 12 11 22 25 22 32 0 8 7 4 15 -8 9 -12 22 -20
30 -17z m3744 12 c13 -33 2 -43 -21 -20 -11 11 -17 25 -14 31 11 18 26 13 35
-11z m-211 -20 c14 -14 16 -98 3 -98 -11 0 -17 17 -27 73 -6 38 2 47 24 25z
m249 -44 c8 -20 -8 -36 -26 -25 -15 10 -8 41 9 41 6 0 13 -7 17 -16z m-3961
-19 c18 -27 11 -65 -12 -65 -10 0 -14 13 -14 45 0 25 2 45 5 45 2 0 12 -11 21
-25z m3923 -142 c-5 -21 -9 -42 -9 -48 -1 -5 -5 0 -10 13 -6 13 -6 32 0 47 15
39 29 30 19 -12z m-3425 11 c7 -17 0 -34 -14 -34 -11 0 -21 30 -14 41 8 14 21
11 28 -7z m-544 -36 c-1 -28 -2 -30 -11 -15 -6 10 -8 25 -5 33 9 24 16 16 16
-18z m4894 -55 c0 -15 -5 -28 -9 -28 -11 0 -26 55 -19 67 10 16 30 -10 28 -39z
m-264 -18 c0 -8 -4 -15 -10 -15 -5 0 -10 7 -10 15 0 8 5 15 10 15 6 0 10 -7
10 -15z m-4249 -58 c-8 -8 -11 -7 -11 4 0 9 3 19 7 23 4 4 9 2 11 -4 3 -7 -1
-17 -7 -23z m110 6 c37 -35 37 -59 2 -66 -16 -3 -31 -3 -35 0 -9 5 -11 93 -2
93 3 0 19 -12 35 -27z m-322 -15 c0 -18 -3 -26 -6 -18 -3 8 -10 23 -15 33 -6
12 -5 17 7 17 10 0 15 -10 14 -32z m4101 2 c0 -5 -2 -10 -4 -10 -3 0 -8 5 -11
10 -3 6 -1 10 4 10 6 0 11 -4 11 -10z m-3 -42 c-3 -8 -6 -5 -6 6 -1 11 2 17 5
13 3 -3 4 -12 1 -19z m-3917 -13 c0 -8 -4 -15 -9 -15 -5 0 -11 7 -15 15 -3 9
0 15 9 15 8 0 15 -7 15 -15z m50 -92 c0 -31 -2 -33 -20 -23 -21 11 -28 40 -10
40 7 0 7 6 0 19 -16 30 -12 36 10 16 12 -11 20 -31 20 -52z m4200 11 c0 -32
-12 -45 -24 -25 -9 13 5 71 15 65 5 -3 9 -21 9 -40z m-658 -61 c22 -20 24 -66
3 -83 -8 -7 -15 -18 -14 -24 0 -7 2 -6 6 2 2 6 9 12 14 12 12 0 12 -37 -1 -45
-5 -3 -10 -26 -10 -50 0 -24 -4 -47 -10 -50 -5 -3 -10 -16 -10 -28 0 -12 -8
-43 -17 -69 -14 -38 -22 -48 -40 -48 -20 0 -23 5 -23 35 0 19 4 35 10 35 15 0
31 70 20 91 -6 10 -10 27 -10 38 0 29 -21 71 -35 71 -7 0 -20 11 -29 25 l-16
25 40 0 c42 0 54 14 20 23 -37 10 -23 30 16 23 31 -6 36 -4 41 13 6 25 20 27
45 4z m-2991 -36 c-17 -17 -33 11 -18 28 10 10 14 10 21 -2 5 -9 4 -19 -3 -26z
m-235 -54 c-11 -11 -19 6 -11 24 8 17 8 17 12 0 3 -10 2 -21 -1 -24z m1713
-33 c0 -10 -3 -8 -9 5 -12 27 -12 43 0 25 5 -8 9 -22 9 -30z m1731 -14 c-9
-12 -11 -33 -8 -91 4 -82 1 -99 -20 -113 -12 -8 -22 -23 -22 -34 0 -18 -5 -20
-32 -14 -38 8 -38 8 -40 37 -2 48 0 51 32 44 l30 -7 -6 84 c-6 78 -5 85 17
109 22 24 26 25 41 11 12 -10 15 -19 8 -26z m-2950 -195 c0 -17 -4 -33 -10
-36 -6 -4 -10 8 -10 29 0 20 5 36 10 36 6 0 10 -13 10 -29z m3034 7 c23 -85
23 -99 6 -121 l-18 -21 -5 29 c-14 77 -17 106 -12 115 9 14 25 12 29 -2z
m-1464 -148 c0 -11 -4 -20 -10 -20 -5 0 -10 9 -10 20 0 11 5 20 10 20 6 0 10
-9 10 -20z m1416 -5 c4 -14 4 -29 0 -32 -3 -3 -1 -12 5 -19 10 -13 -7 -54 -24
-54 -15 0 -19 30 -7 46 10 11 10 18 2 26 -7 7 -12 22 -12 35 0 32 28 30 36 -2z
m-433 -30 c4 -8 2 -17 -3 -20 -6 -4 -10 3 -10 14 0 25 6 27 13 6z m-513 -66
c0 -5 -7 -6 -15 -3 -8 4 -15 13 -15 21 0 13 3 13 15 3 8 -7 15 -16 15 -21z
m720 6 c0 -14 -4 -25 -10 -25 -5 0 -10 11 -10 25 0 14 5 25 10 25 6 0 10 -11
10 -25z m-972 -75 c3 -21 2 -22 -12 -11 -19 16 -21 44 -3 39 6 -3 14 -15 15
-28z m873 5 c5 4 9 1 9 -4 0 -6 -7 -11 -15 -11 -9 0 -15 9 -14 23 1 17 2 18 6
4 2 -9 9 -15 14 -12z m122 -142 c-4 -10 -9 -11 -16 -4 -5 5 -7 18 -3 28 6 14
9 15 16 4 4 -8 6 -21 3 -28z m-2253 -13 c0 -5 -6 -10 -14 -10 -8 0 -18 5 -21
10 -3 6 3 10 14 10 12 0 21 -4 21 -10z m-21 -42 c0 -13 -4 -32 -9 -43 -7 -15
-9 -10 -9 23 -1 23 4 42 9 42 6 0 10 -10 9 -22z m-89 1 c0 -6 -12 -31 -27 -57
-23 -39 -29 -43 -31 -26 -4 31 24 94 42 94 9 0 16 -5 16 -11z m-160 -27 c0
-11 -55 -88 -69 -96 -5 -4 -13 -2 -16 4 -4 6 10 31 30 55 34 42 55 56 55 37z
m205 -166 c-32 -32 -38 -33 -23 -1 9 20 35 37 46 29 2 -1 -9 -14 -23 -28z m75
-50 c0 -22 -25 -54 -35 -44 -8 7 16 68 26 68 5 0 9 -11 9 -24z m-10 -262 c0
-8 -5 -12 -10 -9 -6 4 -8 11 -5 16 9 14 15 11 15 -7z m1050 -154 c-7 -16 -16
-30 -21 -30 -13 0 -11 8 8 41 21 36 30 29 13 -11z m276 -48 c-9 -67 -80 -139
-106 -107 -19 23 -7 59 23 73 16 8 33 25 39 38 16 35 48 32 44 -4z m-675 -125
c-6 -6 -11 -28 -11 -49 0 -39 -15 -49 -38 -26 -8 8 -18 3 -41 -21 -29 -31 -61
-38 -67 -16 -2 6 22 30 51 55 30 25 62 60 71 78 l16 34 15 -22 c11 -16 12 -25
4 -33z m429 -35 c0 -34 -23 -68 -38 -58 -17 10 -15 38 4 64 21 30 34 28 34 -6z
m-620 -26 c0 -8 -4 -17 -9 -21 -12 -7 -24 12 -16 25 9 15 25 12 25 -4z m-2078
-1723 c24 -22 23 -50 -2 -58 -39 -12 -66 35 -38 63 15 15 18 15 40 -5z m4581
-1309 l-17 -39 -4 30 c-2 16 1 31 7 33 6 2 11 11 11 20 0 11 3 13 10 6 7 -7 5
-23 -7 -50z m-116 -66 c-3 -8 -6 -5 -6 6 -1 11 2 17 5 13 3 -3 4 -12 1 -19z
m97 -70 c6 -47 5 -58 -7 -58 -10 0 -16 18 -20 66 -11 115 13 107 27 -8z m-142
-32 c-2 -25 -8 -46 -13 -46 -10 0 -12 60 -3 84 11 29 19 8 16 -38z m291 -26
c7 0 21 7 31 15 24 18 42 20 29 3 -6 -7 -13 -26 -17 -43 -7 -27 -9 -28 -20
-12 -7 9 -22 17 -33 17 -16 0 -19 5 -14 33 4 26 6 28 9 10 2 -13 9 -23 15 -23z
m-333 -5 c0 -8 -7 -15 -15 -15 -16 0 -20 12 -8 23 11 12 23 8 23 -8z m251
-242 c-8 -14 -11 -14 -11 -3 0 13 -1 13 -10 0 -5 -8 -11 -12 -14 -9 -3 3 2 15
10 28 20 28 42 14 25 -16z m153 -19 c11 -28 6 -38 -9 -18 -8 10 -15 22 -15 27
0 13 18 7 24 -9z m-164 -21 c0 -5 25 -8 57 -8 87 0 77 -35 -12 -41 -16 -1 -42
-5 -57 -9 -28 -7 -29 -2 -12 53 4 13 24 17 24 5z m205 -139 c-5 -50 -15 -99
-26 -121 l-19 -37 0 67 c0 38 4 66 9 63 10 -7 21 41 21 91 0 22 4 32 11 28 7
-5 8 -35 4 -91z m-201 -118 c-3 -21 -9 -35 -11 -32 -3 3 -2 21 1 42 4 20 10
34 12 31 3 -3 2 -21 -2 -41z m-218 -18 c27 -21 36 -58 14 -58 -5 0 -15 -3 -23
-6 -8 -3 -22 2 -31 11 -19 19 -21 61 -3 68 6 3 12 6 13 6 0 1 14 -9 30 -21z
m154 -243 c10 -13 9 -15 -9 -15 -12 0 -21 6 -21 15 0 8 4 15 9 15 5 0 14 -7
21 -15z m6137 -107 c-3 -8 -6 -5 -6 6 -1 11 2 17 5 13 3 -3 4 -12 1 -19z
m-6277 -10 c-1 -13 -16 -40 -34 -61 -33 -37 -34 -37 -38 -13 -3 17 4 37 20 61
29 40 52 46 52 13z m235 -4760 c-4 -24 -13 -74 -19 -112 l-11 -69 -19 41 c-17
37 -17 46 -6 89 24 86 69 127 55 51z m87 -239 c-21 -62 -49 -76 -76 -38 -15
21 -14 25 6 46 12 13 29 23 39 23 10 0 21 9 24 21 4 13 11 17 16 12 5 -5 2
-31 -9 -64z m-97 -4829 c9 -15 -22 -60 -40 -60 -18 0 -19 9 -5 44 10 26 34 34
45 16z m71 -47 c37 -114 13 -269 -40 -261 -15 2 -22 11 -24 34 -5 48 13 84 40
81 22 -2 23 0 20 63 -2 36 -8 69 -13 75 -9 9 -13 65 -5 65 2 0 12 -26 22 -57z"/>
<path d="M12680 22669 c0 -5 5 -7 10 -4 6 3 10 8 10 11 0 2 -4 4 -10 4 -5 0
-10 -5 -10 -11z"/>
<path d="M17230 22221 c0 -25 6 -27 13 -6 4 8 2 17 -3 20 -6 4 -10 -3 -10 -14z"/>
<path d="M17267 22174 c-9 -9 12 -46 23 -39 4 3 7 13 6 22 -3 18 -18 27 -29
17z"/>
<path d="M12480 22129 c0 -5 5 -7 10 -4 6 3 10 8 10 11 0 2 -4 4 -10 4 -5 0
-10 -5 -10 -11z"/>
<path d="M12321 21644 c0 -11 3 -14 6 -6 3 7 2 16 -1 19 -3 4 -6 -2 -5 -13z"/>
<path d="M16735 21331 c-11 -5 -42 -12 -70 -16 -27 -4 -61 -13 -75 -19 -49
-25 -156 -56 -192 -56 -24 0 -42 -6 -50 -18 -7 -10 -38 -24 -68 -31 -30 -8
-66 -19 -80 -26 -14 -7 -70 -22 -125 -34 -55 -12 -120 -28 -145 -35 -25 -8
-73 -20 -107 -26 -35 -7 -63 -17 -63 -22 0 -5 -9 -6 -20 -3 -33 10 -89 -16
-110 -52 -11 -18 -23 -33 -27 -32 -24 4 -32 -5 -38 -41 -4 -22 -11 -40 -16
-40 -5 0 -9 -7 -9 -15 0 -8 -4 -15 -10 -15 -5 0 -10 -6 -10 -13 0 -8 -11 -19
-25 -25 -33 -15 -32 -48 1 -83 25 -26 25 -28 10 -57 -8 -16 -13 -32 -10 -35 3
-3 -2 -20 -12 -38 -11 -22 -18 -67 -22 -140 -4 -98 -3 -110 20 -160 26 -55
162 -209 186 -209 6 0 12 -6 12 -12 0 -15 49 -48 143 -96 16 -7 49 -15 75 -15
l47 -2 3 49 c2 27 -2 54 -7 59 -6 6 -11 21 -11 33 0 12 -7 27 -15 34 -8 7 -15
23 -15 36 0 17 -6 24 -20 24 -14 0 -20 7 -20 22 0 12 -12 39 -26 59 -14 21
-23 43 -19 49 3 5 25 20 47 31 36 18 39 23 33 47 -15 63 -9 74 79 139 86 63
126 56 126 -23 0 -63 16 -97 68 -140 50 -42 115 -61 222 -65 30 -1 45 -4 33
-6 -13 -2 -23 -9 -23 -14 0 -5 -9 -9 -21 -9 -11 0 -29 -5 -40 -10 -13 -7 -19
-7 -19 0 0 5 -17 10 -39 10 -65 0 -82 -49 -25 -70 32 -12 64 -4 64 16 0 11 5
9 19 -5 25 -25 117 -27 133 -2 7 12 20 16 39 13 24 -4 29 0 35 23 7 27 -7 47
-39 58 -6 2 -5 20 5 49 15 42 15 47 -4 76 -19 30 -19 31 2 71 18 36 25 41 54
41 18 0 45 -9 59 -20 14 -11 31 -20 39 -20 8 0 30 -20 51 -44 l36 -44 -29 -40
c-22 -31 -37 -41 -61 -44 -18 -2 -35 -9 -37 -17 -4 -11 0 -12 14 -6 11 5 33 9
49 10 77 4 176 18 181 26 2 5 27 0 55 -11 60 -24 82 -25 114 -4 33 22 32 36
-11 105 -40 66 -79 100 -139 120 -22 7 -56 24 -75 36 -19 13 -40 23 -46 23 -7
0 -25 7 -40 15 -16 8 -40 15 -54 15 -14 0 -38 7 -55 16 -16 9 -52 18 -80 20
-27 3 -72 9 -98 15 -26 5 -71 9 -100 9 -29 0 -80 10 -114 22 -53 18 -63 25
-63 45 0 18 9 28 35 38 19 8 39 24 45 35 6 11 25 22 48 25 20 3 48 12 62 19
14 8 70 28 125 45 54 17 109 38 122 46 43 29 135 46 243 45 121 -1 170 -13
170 -40 0 -22 17 -29 50 -20 20 5 26 14 31 45 9 53 -4 145 -22 156 -8 5 -32
19 -53 32 -22 13 -40 32 -42 42 -2 11 -19 35 -38 53 -34 30 -40 32 -108 31
-40 0 -82 -4 -93 -8z m29 -732 c-3 -5 9 -9 26 -9 21 0 38 -8 51 -22 17 -22 25
-48 14 -48 -18 0 -82 34 -111 59 -27 24 -30 30 -16 33 23 6 43 -2 36 -13z
m-540 5 c24 -9 22 -80 -3 -94 -75 -40 -126 38 -54 82 32 20 35 20 57 12z"/>
<path d="M12162 21222 c2 -9 11 -18 22 -20 12 -3 17 1 14 14 -1 9 -11 18 -21
20 -12 2 -17 -3 -15 -14z"/>
<path d="M12160 21171 c0 -12 5 -21 10 -21 6 0 10 6 10 14 0 8 -4 18 -10 21
-5 3 -10 -3 -10 -14z"/>
<path d="M12100 21132 c-21 -17 -22 -21 -9 -55 7 -20 17 -37 21 -37 4 0 8 1 8
3 0 1 3 26 6 55 4 28 4 52 1 52 -3 0 -15 -8 -27 -18z"/>
<path d="M13155 21111 c-6 -5 -26 -11 -45 -13 -27 -2 -38 -10 -48 -31 -7 -15
-29 -43 -48 -62 -19 -19 -34 -42 -34 -51 0 -9 -11 -26 -24 -38 -16 -14 -25
-35 -28 -67 l-5 -46 41 -10 c22 -6 49 -14 58 -18 13 -5 26 2 47 24 16 17 34
31 40 31 14 0 14 6 0 32 -10 19 -9 20 12 13 47 -16 157 -6 206 17 29 14 94 5
143 -21 23 -12 53 -21 69 -21 16 0 48 -7 71 -15 54 -19 90 -19 126 0 46 24 98
20 113 -9 12 -22 68 -56 94 -56 16 0 70 -59 85 -93 13 -30 12 -32 -43 -40 -16
-3 -57 -13 -90 -22 -33 -9 -78 -20 -100 -24 -22 -4 -65 -19 -95 -34 -30 -15
-89 -35 -130 -46 -125 -32 -220 -68 -316 -118 -109 -57 -120 -66 -163 -121
-70 -90 -32 -142 105 -142 68 0 135 14 132 28 -3 17 17 44 38 53 17 6 24 16
24 35 0 46 96 120 129 100 6 -4 17 -21 26 -39 8 -18 30 -50 49 -71 l33 -39
144 -1 c95 0 151 4 166 12 14 8 29 36 44 84 39 128 58 139 150 92 l51 -25 -4
-57 c-2 -45 -8 -61 -25 -75 -26 -21 -30 -45 -8 -53 10 -4 15 -21 15 -53 0 -44
-2 -48 -36 -64 -20 -10 -47 -31 -62 -48 -14 -17 -35 -35 -46 -39 -13 -5 3 -6
39 -3 33 3 73 12 89 19 16 8 36 14 46 14 9 0 21 5 27 11 6 6 35 13 63 15 58 4
74 14 96 57 15 27 14 30 -10 52 -41 38 -31 71 25 89 38 12 79 74 79 119 0 15
9 36 19 46 52 52 46 108 -15 130 -19 7 -38 19 -41 27 -3 8 -10 14 -15 14 -5 0
-21 9 -35 20 -16 13 -34 18 -48 14 -15 -4 -33 2 -52 15 -18 13 -51 23 -90 27
-35 4 -68 13 -74 20 -6 7 -17 10 -25 7 -9 -3 -14 2 -14 16 0 17 4 20 28 15 19
-4 34 0 45 10 23 23 90 21 112 -4 15 -17 26 -19 76 -13 41 4 59 2 59 -6 0 -19
39 -12 51 10 12 24 -1 39 -33 39 -12 0 -18 8 -18 25 0 30 28 34 67 8 25 -17
26 -17 18 7 -4 14 -11 26 -16 28 -5 2 -11 18 -15 36 -4 23 -11 33 -22 32 -10
-1 -19 10 -23 29 -4 17 -7 27 -8 23 0 -5 -10 1 -21 12 -17 17 -28 19 -78 14
-31 -4 -59 -8 -61 -10 -7 -6 -76 27 -96 46 -11 10 -43 27 -72 38 -44 17 -73
19 -199 17 -82 -1 -155 1 -164 6 -26 14 -181 42 -277 50 -51 4 -97 10 -103 14
-17 11 -165 16 -175 6z m575 -681 c15 -28 3 -59 -25 -66 -37 -9 -60 -1 -63 24
-7 51 65 85 88 42z"/>
<path d="M14441 20914 c0 -11 3 -14 6 -6 3 7 2 16 -1 19 -3 4 -6 -2 -5 -13z"/>
<path d="M12875 20700 c-23 -44 -19 -60 14 -60 22 0 32 7 44 32 19 38 12 58
-19 58 -16 0 -28 -9 -39 -30z"/>
<path d="M18165 20246 c-92 -46 -92 -44 -60 -156 9 -30 29 -120 45 -200 16
-80 43 -192 61 -250 30 -96 32 -116 32 -240 0 -167 -28 -290 -103 -444 -54
-112 -60 -142 -32 -176 25 -31 69 -21 78 18 3 15 14 46 25 69 10 22 24 63 30
90 7 26 16 53 21 59 8 12 52 149 68 214 67 280 71 307 79 480 11 246 -2 330
-74 469 -48 90 -89 107 -170 67z"/>
<path d="M13942 20143 c2 -10 12 -18 23 -18 11 0 21 8 23 18 3 13 -3 17 -23
17 -20 0 -26 -4 -23 -17z"/>
<path d="M14060 20150 c0 -5 9 -10 20 -10 11 0 20 5 20 10 0 6 -9 10 -20 10
-11 0 -20 -4 -20 -10z"/>
<path d="M13758 20093 c6 -2 18 -2 25 0 6 3 1 5 -13 5 -14 0 -19 -2 -12 -5z"/>
<path d="M11567 20000 c-19 -16 -39 -42 -45 -57 -14 -36 -39 -306 -33 -356 2
-15 26 17 39 53 8 19 24 73 36 120 23 84 60 170 74 170 4 0 23 14 42 29 34 29
34 30 16 50 -29 32 -87 28 -129 -9z"/>
<path d="M12032 19488 c5 -15 28 -18 29 -3 0 6 -7 12 -17 13 -10 3 -15 -1 -12
-10z"/>
<path d="M15773 19403 c-9 -3 -13 -26 -13 -68 0 -63 1 -64 41 -97 143 -114
184 -188 176 -318 -4 -73 -34 -150 -58 -150 -5 0 -18 -9 -29 -20 -19 -19 -19
-21 -3 -40 21 -25 33 -26 34 -2 0 11 6 5 16 -15 14 -28 15 -36 3 -60 -11 -22
-14 -25 -17 -10 -5 21 -10 21 -28 3 -18 -17 -30 -66 -18 -66 6 0 10 -14 11
-31 1 -38 10 -48 23 -29 9 12 10 11 6 -7 -4 -19 -2 -20 24 -11 16 5 27 13 25
17 -3 4 5 8 17 8 40 3 97 26 97 40 0 7 8 14 18 15 57 5 69 3 65 -9 -3 -8 3
-13 18 -13 27 0 89 -35 89 -50 0 -5 16 -10 35 -10 34 0 35 1 37 43 5 129 2
170 -9 174 -8 3 -13 24 -13 54 0 27 -4 49 -10 49 -5 0 -10 6 -10 13 0 8 -9 22
-19 31 -10 10 -22 32 -25 51 -4 18 -13 38 -21 45 -8 7 -15 19 -15 27 0 7 -7
16 -15 20 -9 3 -25 23 -36 45 -11 21 -31 44 -44 50 -14 6 -25 17 -25 25 0 7
-4 13 -9 13 -5 0 -21 25 -35 55 -15 30 -35 59 -45 64 -10 6 -28 30 -39 53 -11
24 -34 60 -52 80 -29 33 -35 36 -83 36 -29 -1 -58 -3 -64 -5z"/>
<path d="M15670 18842 c-25 -12 -35 -24 -35 -41 0 -20 9 -27 53 -41 30 -10 66
-29 81 -44 15 -14 32 -26 38 -26 12 0 27 29 24 46 -1 7 5 14 14 18 22 8 18 41
-8 72 -31 35 -113 44 -167 16z"/>
<path d="M14705 18794 c-94 -23 -126 -38 -131 -63 -3 -14 -8 -33 -10 -41 -2
-10 15 -24 54 -43 31 -15 61 -27 65 -27 5 0 27 15 50 34 50 41 89 50 148 37
59 -13 73 1 34 36 -28 24 -80 51 -114 58 -45 10 -78 13 -96 9z"/>
<path d="M15235 18744 c-27 -8 -72 -17 -100 -20 -56 -7 -106 -25 -102 -37 5
-15 100 -62 172 -86 39 -12 86 -35 106 -51 25 -20 43 -27 61 -23 14 3 35 0 47
-6 19 -10 21 -9 21 13 0 13 7 26 15 30 21 8 9 83 -16 112 -11 11 -19 25 -19
30 0 13 -36 31 -75 37 -16 3 -37 8 -45 11 -8 2 -37 -2 -65 -10z"/>
<path d="M12390 18668 c-17 -28 -21 -47 -14 -70 8 -26 21 -22 29 9 3 15 11 30
15 33 10 6 2 50 -9 50 -3 0 -13 -10 -21 -22z"/>
<path d="M12410 18559 c0 -56 -16 -78 -57 -79 -19 0 -20 -2 -10 -30 6 -16 16
-30 23 -30 6 0 17 -17 24 -39 12 -38 13 -38 31 -20 14 14 19 34 19 78 0 33 5
63 10 66 15 9 12 42 -5 75 -23 44 -35 36 -35 -21z"/>
<path d="M15318 18384 c-12 -26 -14 -26 -84 -21 -39 3 -75 2 -81 -1 -6 -4 -10
-40 -8 -87 2 -89 -9 -118 -32 -85 -16 23 -38 26 -46 6 -7 -16 19 -56 36 -56 7
0 20 -18 29 -39 10 -23 27 -42 40 -47 13 -3 26 -11 30 -17 10 -16 99 22 132
56 16 18 24 33 17 35 -6 2 -11 19 -11 37 0 24 -8 39 -29 56 -23 18 -27 27 -20
40 17 32 11 59 -13 59 -21 0 -21 1 6 15 15 8 38 15 50 15 26 0 62 -35 68 -65
2 -12 13 -21 28 -23 36 -5 52 -22 47 -49 -4 -19 0 -22 27 -21 38 1 96 -11 96
-20 0 -9 49 -32 67 -32 7 0 13 5 13 12 0 6 7 4 18 -5 10 -10 34 -17 54 -17 22
0 51 -11 79 -30 44 -30 89 -39 89 -19 0 7 14 8 40 4 26 -4 40 -3 40 4 0 6 8
11 18 11 10 0 25 8 33 18 9 9 25 22 35 29 18 12 18 12 -1 13 -11 0 -29 7 -39
15 -11 8 -31 15 -44 15 -13 0 -37 9 -53 21 -16 11 -45 23 -65 26 -25 4 -38 12
-42 25 -3 11 -17 21 -34 25 -16 3 -32 12 -35 19 -3 8 -13 14 -23 14 -11 0 -21
4 -24 9 -4 5 -30 12 -59 16 -28 3 -77 15 -109 26 -53 20 -57 20 -82 4 -24 -16
-27 -16 -72 9 -58 33 -71 33 -86 0z"/>
<path d="M12332 18388 c-14 -14 -16 -68 -2 -68 5 0 12 -22 16 -50 13 -101 24
-36 16 98 -2 34 -10 40 -30 20z"/>
<path d="M17510 18283 c1 -18 18 -35 24 -24 4 6 4 16 1 21 -7 12 -25 13 -25 3z"/>
<path d="M12456 18244 c-4 -9 -3 -20 0 -23 4 -3 9 0 11 7 8 22 23 13 23 -14 0
-18 -4 -25 -14 -21 -19 8 -29 -20 -16 -44 7 -12 21 -19 40 -19 25 0 30 5 35
33 5 27 1 39 -21 65 -32 36 -49 40 -58 16z"/>
<path d="M16145 18080 c-3 -5 -1 -10 4 -10 6 0 11 5 11 10 0 6 -2 10 -4 10 -3
0 -8 -4 -11 -10z"/>
<path d="M16080 18061 c0 -12 5 -21 10 -21 6 0 10 6 10 14 0 8 -4 18 -10 21
-5 3 -10 -3 -10 -14z"/>
<path d="M16440 17890 c0 -5 5 -10 11 -10 5 0 7 5 4 10 -3 6 -8 10 -11 10 -2
0 -4 -4 -4 -10z"/>
<path d="M12660 17824 c0 -8 5 -12 10 -9 6 3 10 10 10 16 0 5 -4 9 -10 9 -5 0
-10 -7 -10 -16z"/>
<path d="M13987 17603 c-10 -3 -16 -10 -14 -16 6 -20 24 -18 30 3 3 11 4 19 4
19 -1 -1 -10 -3 -20 -6z"/>
<path d="M15474 17039 c-4 -7 1 -18 11 -26 29 -21 40 -15 19 10 -10 12 -20 23
-20 25 -1 2 -5 -2 -10 -9z"/>
<path d="M15684 17005 c-7 -41 -17 -44 -38 -13 -12 16 -19 19 -27 11 -18 -18
0 -53 31 -59 20 -5 29 -13 33 -33 13 -67 35 -106 66 -117 17 -5 36 -15 43 -22
7 -7 20 -12 30 -12 10 0 18 -6 18 -12 0 -9 3 -9 9 1 6 9 5 25 -1 40 -6 14 -12
42 -14 61 -7 79 -9 85 -31 88 -25 4 -31 18 -10 25 7 2 -4 14 -25 26 -20 12
-39 28 -42 36 -10 28 -35 16 -42 -20z"/>
<path d="M15400 16980 c0 -33 26 -53 40 -30 15 24 40 -8 40 -50 0 -24 5 -40
15 -44 8 -3 15 -18 16 -33 0 -24 1 -25 8 -8 5 11 6 26 4 32 -3 7 2 20 11 28
22 23 21 25 -26 77 -28 30 -54 49 -75 53 -32 6 -33 5 -33 -25z"/>
<path d="M15865 16870 c4 -6 11 -8 16 -5 14 9 11 15 -7 15 -8 0 -12 -5 -9 -10z"/>
<path d="M15580 16841 c0 -18 23 -35 33 -24 7 6 -15 43 -25 43 -5 0 -8 -9 -8
-19z"/>
<path d="M15921 16794 c-1 -42 35 -74 91 -81 34 -4 40 -2 28 7 -11 9 -12 13
-2 17 25 10 11 24 -18 18 -22 -5 -32 -3 -36 9 -3 9 -15 16 -25 16 -11 0 -24
10 -29 23 -8 20 -9 20 -9 -9z"/>
<path d="M14785 16555 c-28 -19 -62 -43 -77 -52 -34 -22 -51 -61 -42 -96 5
-23 3 -27 -14 -27 -24 0 -40 -36 -23 -53 8 -8 11 -8 11 0 0 11 56 73 66 73 5
0 12 5 65 50 20 16 43 30 51 30 36 0 73 92 42 104 -24 9 -26 8 -79 -29z"/>
<path d="M16221 16481 c-10 -6 -8 -20 6 -63 11 -31 27 -68 38 -84 17 -26 19
-27 25 -9 14 40 -44 171 -69 156z"/>
<path d="M15478 16422 c-16 -32 -13 -52 8 -52 10 0 14 12 14 40 0 47 -4 49
-22 12z"/>
<path d="M14527 16423 c-11 -10 -8 -43 3 -43 6 0 10 4 10 9 0 5 3 16 6 25 6
16 -7 22 -19 9z"/>
<path d="M15315 16408 c-2 -7 -6 -34 -10 -61 -5 -38 -3 -52 13 -72 18 -22 18
-29 7 -67 -20 -63 -43 -149 -50 -183 l-7 -30 24 26 c13 14 30 29 40 32 24 8
51 111 44 166 -3 26 -5 64 -5 86 0 39 -29 115 -44 115 -4 0 -9 -6 -12 -12z"/>
<path d="M15155 16049 c-4 -12 -2 -26 4 -32 8 -8 11 -2 11 21 0 37 -6 41 -15
11z"/>
<path d="M15356 16043 c-4 -9 -2 -21 4 -27 7 -7 10 -2 10 17 0 31 -5 34 -14
10z"/>
<path d="M15152 15923 c2 -14 -15 -47 -39 -76 -27 -34 -31 -70 -7 -65 9 2 25
14 35 28 21 30 36 120 20 120 -6 0 -10 -3 -9 -7z"/>
<path d="M15261 15761 c-23 -32 -26 -57 -11 -97 10 -26 11 -26 30 -9 23 20 35
73 26 110 -8 33 -20 32 -45 -4z"/>
<path d="M14962 15718 c2 -13 8 -23 13 -23 6 0 11 10 13 23 2 15 -2 22 -13 22
-11 0 -15 -7 -13 -22z"/>
<path d="M15948 15766 c-10 -7 -18 -18 -18 -24 0 -6 -6 -15 -13 -19 -19 -11
-27 -50 -13 -61 28 -23 97 46 86 87 -7 30 -19 35 -42 17z"/>
<path d="M17170 12064 c0 -8 5 -12 10 -9 6 3 10 10 10 16 0 5 -4 9 -10 9 -5 0
-10 -7 -10 -16z"/>
<path d="M17060 11985 c0 -8 4 -15 9 -15 5 0 11 7 15 15 3 9 0 15 -9 15 -8 0
-15 -7 -15 -15z"/>
<path d="M17040 11830 c0 -32 14 -40 24 -15 6 18 -2 45 -15 45 -5 0 -9 -13 -9
-30z"/>
<path d="M17260 11826 c0 -8 5 -18 10 -21 6 -3 10 -16 10 -27 0 -12 3 -19 6
-15 9 9 -5 77 -16 77 -6 0 -10 -6 -10 -14z"/>
<path d="M17000 11750 c0 -5 5 -10 10 -10 6 0 10 5 10 10 0 6 -4 10 -10 10 -5
0 -10 -4 -10 -10z"/>
<path d="M21915 33 l-25 -28 41 -3 c23 -2 43 -1 45 1 8 7 -15 57 -25 57 -6 0
-22 -12 -36 -27z"/>
</g>
</svg>
